<?xml version="1.0" encoding="UTF-8"?>
<svg version="1.1" xmlns="http://www.w3.org/2000/svg" width="580" height="580">
<path d="M0 0 C0.66 0 1.32 0 2 0 C6.95 35.97 11.9 71.94 17 109 C23.07376381 99.2819779 29.09033234 89.58126434 34.90499878 79.71356201 C41.67788215 68.22417759 48.51732925 56.77625085 55.4375 45.375 C55.97263718 44.49177063 55.97263718 44.49177063 56.51858521 43.59069824 C57.53035761 41.92149579 58.54443085 40.25368863 59.55859375 38.5859375 C60.12892334 37.6479834 60.69925293 36.7100293 61.28686523 35.74365234 C63.13348757 32.78621443 65.05276108 29.89196008 67 27 C68.36027772 31.08083317 67.24198383 34.26548127 66.27758789 38.3269043 C66.08266251 39.17590302 65.88773712 40.02490173 65.68690491 40.89962769 C65.03974654 43.70963992 64.38125337 46.51686745 63.72265625 49.32421875 C63.27212334 51.27033093 62.8222981 53.21660706 62.37315369 55.16304016 C61.18831993 60.28898532 59.99386459 65.41264198 58.79742432 70.53588867 C57.57855663 75.76281766 56.36875683 80.9918436 55.15820312 86.22070312 C52.78102969 96.48254711 50.39369129 106.7419974 48 117 C52.70248299 113.29589184 56.80739576 109.22775996 60.98828125 104.94921875 C63.19255902 102.73892863 65.4903378 100.68144466 67.85546875 98.64453125 C72.11242252 94.95980555 76.05929611 91.01767076 80 87 C86.64915171 80.22098204 93.51118446 73.85063714 101 68 C100.39052171 71.49394087 99.4802211 74.58270644 98.12988281 77.859375 C97.74568176 78.7980542 97.36148071 79.7367334 96.96563721 80.70385742 C96.54900818 81.70908447 96.13237915 82.71431152 95.703125 83.75 C95.27247742 84.79969971 94.84182983 85.84939941 94.39813232 86.9309082 C93.0196323 90.28902119 91.63511541 93.64461089 90.25 97 C88.44063888 101.39498416 86.6337801 105.79099206 84.828125 110.1875 C84.39802124 111.23381592 83.96791748 112.28013184 83.52478027 113.3581543 C80.58142413 120.53493209 77.71273905 127.73231562 75 135 C75.44577393 134.64921387 75.89154785 134.29842773 76.35083008 133.93701172 C87.4485605 125.21867763 98.68510643 116.71953509 110.08740234 108.40356445 C111.45136952 107.40261382 112.79343087 106.37152452 114.11962891 105.32104492 C116 104 116 104 118 104 C114.09351472 126.1856535 100.66329609 151.96391599 86 169 C85.24976563 169.87527344 84.49953125 170.75054687 83.7265625 171.65234375 C81.52851444 174.1467157 79.27728969 176.57805488 77 179 C76.13568359 179.97839844 76.13568359 179.97839844 75.25390625 180.9765625 C60.64100447 196.7936455 39.49380564 206.95034271 19.9375 215.0625 C18.79555176 215.54017822 17.65360352 216.01785645 16.47705078 216.51000977 C6.02560442 220.71499395 -0.24437026 222.25477591 -10.86816406 217.93896484 C-11.92229492 217.48473145 -12.97642578 217.03049805 -14.0625 216.5625 C-15.16432617 216.10311035 -16.26615234 215.6437207 -17.40136719 215.17041016 C-63.47970624 195.71825795 -91.46897001 167.74718021 -110.46655273 121.47998047 C-116 107.68701252 -116 107.68701252 -116 104 C-110.78600218 105.59486992 -107.05527274 108.89252263 -102.875 112.25 C-96.13177341 117.58645727 -89.310238 122.79029867 -82.375 127.875 C-81.53952637 128.48762695 -80.70405273 129.10025391 -79.84326172 129.73144531 C-77.89693415 131.15626688 -75.94932499 132.57928339 -74 134 C-74 131.4631335 -74.79213275 129.81780417 -75.7565918 127.46533203 C-76.14086838 126.52319855 -76.52514496 125.58106506 -76.92106628 124.61038208 C-77.3428566 123.58653412 -77.76464691 122.56268616 -78.19921875 121.5078125 C-78.84731255 119.92333817 -78.84731255 119.92333817 -79.50849915 118.30685425 C-80.8982378 114.91155619 -82.29285167 111.5182839 -83.6875 108.125 C-84.60903512 105.87512743 -85.53026275 103.62512888 -86.45117188 101.375 C-88.16442792 97.19211737 -89.87861875 93.00962519 -91.59643555 88.82861328 C-91.9846347 87.87843323 -92.37283386 86.92825317 -92.77279663 85.94927979 C-93.64333805 83.85714878 -94.53834397 81.77512216 -95.45010376 79.70062256 C-95.91749969 78.62749817 -96.38489563 77.55437378 -96.86645508 76.44873047 C-97.29823563 75.47644501 -97.73001617 74.50415955 -98.17488098 73.50241089 C-99 71 -99 71 -98 68 C-97.3709375 68.64066406 -96.741875 69.28132813 -96.09375 69.94140625 C-94.80984375 71.23884766 -94.80984375 71.23884766 -93.5 72.5625 C-92.6646875 73.40941406 -91.829375 74.25632812 -90.96875 75.12890625 C-88.77601015 77.29797794 -86.49304655 79.32715768 -84.15625 81.33984375 C-79.17852851 85.65422157 -74.60976747 90.33926051 -70 95.0390625 C-66.80095786 98.27559341 -63.5805249 101.41213025 -60.125 104.375 C-55.15078153 108.64569355 -50.59056416 113.32477379 -46 118 C-47.07882645 113.08233327 -48.16355854 108.16598831 -49.25 103.25 C-49.41974335 102.48043976 -49.58948669 101.71087952 -49.76437378 100.91799927 C-52.18152491 89.97317583 -54.67805189 79.04897776 -57.23828125 68.13671875 C-57.79332399 65.7633533 -58.34833704 63.38998091 -58.90332031 61.01660156 C-59.73140684 57.47679664 -60.56242786 53.93780385 -61.40222168 50.40075684 C-62.19307785 47.06954636 -62.9743171 43.73620598 -63.75390625 40.40234375 C-63.99619461 39.3945134 -64.23848297 38.38668304 -64.4881134 37.34831238 C-64.70287827 36.42246841 -64.91764313 35.49662445 -65.13891602 34.54272461 C-65.3301857 33.7341954 -65.52145538 32.9256662 -65.71852112 32.09263611 C-66 30 -66 30 -65 27 C-58.42049037 37.28365516 -52.15318728 47.74424044 -45.9375 58.25 C-39.53200267 69.07409394 -33.08854254 79.87309074 -26.5625 90.625 C-26.20574188 91.21381958 -25.84898376 91.80263916 -25.48141479 92.40930176 C-24.46964239 94.07850421 -23.45556915 95.74631137 -22.44140625 97.4140625 C-21.87107666 98.3520166 -21.30074707 99.2899707 -20.71313477 100.25634766 C-18.86918715 103.2095019 -16.93122224 106.10316665 -15 109 C-10.05 73.03 -5.1 37.06 0 0 Z " fill="#000A3E" transform="translate(290,257)"/>
<path d="M0 0 C96.36 0 192.72 0 292 0 C292.04125 36.83625 292.0825 73.6725 292.125 111.625 C292.14320801 123.22350098 292.16141602 134.82200195 292.18017578 146.77197266 C292.18920898 161.01831055 292.18920898 161.01831055 292.19088745 167.70370483 C292.19273843 172.33775783 292.20018388 176.97176423 292.21115112 181.60580444 C292.22501219 187.54251892 292.22895621 193.47916702 292.22614455 199.41589618 C292.22673127 201.57860206 292.23061164 203.7413106 292.23843026 205.90400243 C292.30079669 224.01707226 291.75198788 242.31283714 287.8125 260.0625 C287.48995239 261.54508301 287.48995239 261.54508301 287.16088867 263.05761719 C279.93818727 294.94450632 265.18371123 321.11289666 243 345 C242.4225 345.64324219 241.845 346.28648437 241.25 346.94921875 C231.03157326 357.82910615 217.95158399 366.70927688 205 374 C204.31776367 374.38752441 203.63552734 374.77504883 202.93261719 375.17431641 C190.71567569 382.05607928 178.22053369 387.36653764 165 392 C164.23429688 392.27779297 163.46859375 392.55558594 162.6796875 392.84179688 C160.56471709 393.60595138 158.4419971 394.33995986 156.3125 395.0625 C155.13300781 395.46597656 153.95351563 395.86945313 152.73828125 396.28515625 C143.6037385 398.031887 135.38480056 395.16655429 126.8125 392.125 C125.68408691 391.72788818 124.55567383 391.33077637 123.39306641 390.92163086 C95.12405302 380.70579703 70.62953403 365.77027857 49 345 C48.4445752 344.46866455 47.88915039 343.9373291 47.31689453 343.38989258 C35.94772366 332.30455894 27.16298512 319.10447144 20 305 C19.52506104 304.07670898 19.52506104 304.07670898 19.04052734 303.13476562 C12.08344558 289.46037619 7.50068931 275.22578222 4.25 260.25 C3.95198486 258.91497437 3.95198486 258.91497437 3.64794922 257.55297852 C-0.03608024 239.53217116 -0.29327886 221.07556205 -0.22705078 202.75634766 C-0.22643619 200.49088739 -0.22670836 198.22542675 -0.2277813 195.95996666 C-0.22822757 189.96525636 -0.21674788 183.97062806 -0.20256042 177.97593689 C-0.19105827 172.32339253 -0.19062814 166.67086678 -0.18920898 161.01831055 C-0.17876934 144.5538631 -0.15084683 128.08943047 -0.125 111.625 C-0.08375 74.78875 -0.0425 37.9525 0 0 Z M12 12 C11.95875 46.52625 11.9175 81.0525 11.875 116.625 C11.85679199 127.49260254 11.83858398 138.36020508 11.81982422 149.55712891 C11.81313185 159.37101683 11.81313185 159.37101683 11.80911255 169.18490601 C11.807263 173.5272937 11.79982338 177.86963158 11.78884888 182.21200562 C11.77497274 187.77755564 11.77104647 193.34303485 11.77385545 198.90860057 C11.77326942 200.93454345 11.76939815 202.96048921 11.76156974 204.98641706 C11.69674426 222.60320402 12.18827761 240.53172161 16.25 257.75 C16.46615967 258.69697754 16.68231934 259.64395508 16.9050293 260.61962891 C22.98835296 286.41465624 33.86554143 308.7403886 51 329 C51.58394531 329.70640625 52.16789062 330.4128125 52.76953125 331.140625 C56.81266514 335.92302265 61.16305952 340.031026 66 344 C66.98613281 344.82371094 67.97226563 345.64742188 68.98828125 346.49609375 C87.97201828 362.07623769 109.68079346 372.81961169 132.625 381.3125 C133.69105469 381.72838379 134.75710938 382.14426758 135.85546875 382.57275391 C143.60021209 385.30982762 148.40357521 384.90160576 156 382 C157.72735878 381.43465014 159.4552214 380.87083732 161.18359375 380.30859375 C185.53682604 371.77439805 207.46521152 359.96961424 227 343 C227.72445312 342.39671875 228.44890625 341.7934375 229.1953125 341.171875 C233.95760914 337.15198963 238.0660079 332.82881407 242 328 C242.7734375 327.05253906 243.546875 326.10507812 244.34375 325.12890625 C259.70085319 305.94451563 269.08558281 284.77449675 275 261 C275.25305908 259.99356445 275.25305908 259.99356445 275.51123047 258.96679688 C280.04494613 240.40247569 280.30048758 221.04632466 280.22705078 202.04150391 C280.22643602 199.91621597 280.22670865 197.79092763 280.2277813 195.66563988 C280.22822709 190.04800751 280.21675784 184.43046287 280.20256042 178.81285095 C280.19104783 173.51349658 280.19062759 168.21416199 280.18920898 162.91479492 C280.17877439 147.48485197 280.1508519 132.05492483 280.125 116.625 C280.08375 82.09875 280.0425 47.5725 280 12 C191.56 12 103.12 12 12 12 Z " fill="#000A3E" transform="translate(145,110)"/>
<path d="M0 0 C14.02034105 5.25295445 25.2588076 3.12956151 38.90234375 -1.6796875 C53.28580442 -6.67529343 68.07843966 -4.12929982 81.9921875 1.09765625 C94.60712975 5.34116431 105.13305461 2.81279172 117.12109375 -1.6796875 C129.08533848 -6.08003911 142.17506078 -4.8149108 154.1171875 -1.08984375 C155.23480469 -0.74179688 156.35242188 -0.39375 157.50390625 -0.03515625 C159.67747977 0.64393058 161.84730987 1.33521528 164.01171875 2.04296875 C167.72029537 3.1511268 167.72029537 3.1511268 174.1171875 3.91015625 C174.1171875 10.51015625 174.1171875 17.11015625 174.1171875 23.91015625 C165.12343544 23.91015625 165.12343544 23.91015625 161.609375 22.6328125 C160.85011719 22.36662109 160.09085938 22.10042969 159.30859375 21.82617188 C158.54417969 21.54451172 157.77976562 21.26285156 156.9921875 20.97265625 C141.9487252 15.56052582 127.32880848 15.29356783 112.234375 21 C99.22549173 25.87399493 87.97234434 24.5261006 75.1171875 19.91015625 C59.83368776 14.60862296 46.52787732 16.39546087 31.55078125 21.84375 C18.35449328 26.38744718 6.9304934 23.7744571 -5.765625 19.3203125 C-21.1813917 13.93397736 -36.10597014 17.56210977 -50.8984375 23.140625 C-53.8828125 23.91015625 -53.8828125 23.91015625 -61.8828125 23.91015625 C-61.8828125 17.31015625 -61.8828125 10.71015625 -61.8828125 3.91015625 C-59.8203125 3.49765625 -57.7578125 3.08515625 -55.6328125 2.66015625 C-49.78033689 1.416209 -44.23449573 -0.1815091 -38.6015625 -2.22265625 C-25.94211168 -6.26058453 -12.23229439 -4.62440398 0 0 Z " fill="#000A3E" transform="translate(234.8828125,232.08984375)"/>
<path d="M0 0 C46.48525469 0 46.48525469 0 55 8 C59.33563259 13.65793695 60.46701188 18.99482176 60 26 C58.60659579 32.2112764 56.1449345 35.34137991 51 39 C51.53109375 39.35191406 52.0621875 39.70382813 52.609375 40.06640625 C57.2240865 43.29165169 61.43224607 46.36588432 63 52 C63.79673414 58.96312438 64.14721343 66.16228536 60.38671875 72.32421875 C53.66630907 80.44550257 45.04113529 82.5655521 35 84 C23.45 84 11.9 84 0 84 C0 56.28 0 28.56 0 0 Z M20 15 C20 20.94 20 26.88 20 33 C23.0628125 33.0928125 23.0628125 33.0928125 26.1875 33.1875 C27.91033203 33.23970703 27.91033203 33.23970703 29.66796875 33.29296875 C34.27072382 32.88827165 36.78317409 31.21682591 40 28 C40.33938407 24.99402676 40.56822757 22.89853457 40 20 C37.24154174 17.01167022 34.93369401 15.73054317 31 15 C29.08438746 14.93311409 27.16664408 14.91468281 25.25 14.9375 C22.65125 14.9684375 22.65125 14.9684375 20 15 Z M20 47 C20 54.26 20 61.52 20 69 C31.65355495 69.48668444 31.65355495 69.48668444 41.875 64.6875 C43.60281897 62.09577154 43.87831708 60.10291445 44 57 C42.69551075 53.08653224 41.67048681 51.4320915 38.1875 49.1875 C31.81327502 46.81278873 27.02659209 47 20 47 Z " fill="#000A3E" transform="translate(264,135)"/>
<path d="M0 0 C6.6 0 13.2 0 20 0 C20.01401855 2.48176758 20.01401855 2.48176758 20.02832031 5.01367188 C20.06829147 11.1714945 20.13407165 17.3288213 20.20751953 23.48632812 C20.23787523 26.14791611 20.25692114 28.8089002 20.27099609 31.47070312 C20.29248215 35.30381643 20.33916563 39.13593602 20.390625 42.96875 C20.39185364 44.15239136 20.39308228 45.33603271 20.39434814 46.55554199 C20.51617269 53.47851104 21.23828384 58.12762982 25 64 C30.01702395 67.88819356 34.7561524 68.41625651 41 68 C46.49520593 66.69553056 49.91907668 64.92947731 53 60 C54.03266482 56.90200554 54.15509525 54.67740727 54.20532227 51.42700195 C54.22526749 50.28604568 54.24521271 49.14508942 54.26576233 47.96955872 C54.28247482 46.73823715 54.29918732 45.50691559 54.31640625 44.23828125 C54.33718735 42.97735153 54.35796844 41.71642181 54.37937927 40.4172821 C54.43372122 37.06854542 54.48396166 33.71979795 54.53222656 30.37097168 C54.58250357 26.95233771 54.63815724 23.53379174 54.69335938 20.11523438 C54.80053504 13.4102242 54.90180812 6.70514752 55 0 C61.93 0 68.86 0 76 0 C76.09953334 7.73718599 76.17178259 15.47399194 76.21972656 23.21166992 C76.23973214 25.83901469 76.26694537 28.46631556 76.30175781 31.09350586 C76.35076332 34.88927096 76.37308051 38.68444289 76.390625 42.48046875 C76.41127014 43.63830368 76.43191528 44.79613861 76.45318604 45.98905945 C76.45623348 57.28803233 74.42837093 67.8564485 66.27734375 76.12890625 C57.97256177 82.95221769 48.24160843 85.38511277 37.6875 85.3125 C36.84662842 85.30758545 36.00575684 85.3026709 35.1394043 85.29760742 C24.5932508 85.09854635 15.92860325 82.44050539 8.0546875 75.21484375 C-0.12696563 66.60527989 -0.43335612 57.47430205 -0.29296875 45.99609375 C-0.28872391 44.67706558 -0.28447906 43.35803741 -0.28010559 41.9990387 C-0.26874678 38.52194615 -0.23935931 35.04524004 -0.20599365 31.56829834 C-0.1750972 28.008476 -0.16155879 24.44859015 -0.14648438 20.88867188 C-0.11447893 13.92560819 -0.06178649 6.96286253 0 0 Z " fill="#000A3E" transform="translate(173,135)"/>
<path d="M0 0 C-0.3080144 2.62559844 -0.62120182 5.25039806 -0.9375 7.875 C-1.02451172 8.62136719 -1.11152344 9.36773437 -1.20117188 10.13671875 C-1.88671875 15.7734375 -1.88671875 15.7734375 -3 18 C-5.35504399 17.08837007 -7.6686793 16.17106967 -9.9140625 15.01171875 C-17.79274804 11.07237598 -25.85414428 9.86284116 -34.4375 12.1875 C-40.48683461 14.37144508 -43.63213575 16.98104744 -46.75 22.625 C-50.77804056 31.303712 -50.75196372 39.88582313 -48 49 C-45.52757571 54.54901241 -42.49264357 58.19982877 -37 61 C-27.43006743 64.52576463 -17.39886702 63.16935278 -8.21875 59.03515625 C-7.4865625 58.69355469 -6.754375 58.35195312 -6 58 C-4.33673803 57.32488383 -2.67089305 56.65600202 -1 56 C1.29612756 67.52164009 1.29612756 67.52164009 1 73 C-12.36294128 80.30916621 -27.06758139 82.53479291 -42.0625 78.8125 C-52.86507907 75.24467572 -61.54656469 69.1892849 -66.875 58.9375 C-70.21983297 51.90867268 -71.36621215 45.3844517 -71.3125 37.6875 C-71.30686035 36.84517822 -71.3012207 36.00285645 -71.29541016 35.13500977 C-71.07603901 23.90038355 -67.7782112 14.51315912 -60.21875 5.9921875 C-44.31673142 -9.06259238 -18.71134817 -9.79465 0 0 Z " fill="#000A3E" transform="translate(408,140)"/>
<path d="M0 0 C1.83039234 0.5719976 3.66349164 1.13545433 5.5 1.6875 C6.2321875 1.91824219 6.964375 2.14898437 7.71875 2.38671875 C10.43462989 3.11684399 13.2259547 3.53765912 16 4 C16 10.6 16 17.2 16 24 C8.01755724 23.67638746 1.60945518 22.04701195 -5.8359375 19.15625 C-18.62269438 14.4835586 -32.85786972 16.1862634 -45.38671875 20.7109375 C-58.47770976 25.38123699 -69.00031023 24.7164024 -82 20 C-82.85722656 19.69191406 -83.71445312 19.38382812 -84.59765625 19.06640625 C-86.40669165 18.39958368 -88.20506498 17.70389609 -90 17 C-92.29612756 3.3667426 -92.29612756 3.3667426 -92 -3 C-87.21773887 -2.7072085 -83.19746521 -1.78469127 -78.68139648 -0.13916016 C-65.83361818 4.52833003 -56.78026172 3.35371553 -44 -1 C-28.97959865 -5.91091097 -14.83774486 -5.15611634 0 0 Z " fill="#000A3E" transform="translate(393,265)"/>
<path d="M0 0 C14.56084289 4.84212645 24.73088802 2.52017319 38.79296875 -2.5390625 C40.80078125 -3.08984375 40.80078125 -3.08984375 44.80078125 -3.08984375 C44.65858561 -0.8812732 44.51186278 1.32700612 44.36328125 3.53515625 C44.24146484 5.37980469 44.24146484 5.37980469 44.1171875 7.26171875 C44.01277344 8.46570313 43.90835938 9.6696875 43.80078125 10.91015625 C43.77564453 12.52083984 43.77564453 12.52083984 43.75 14.1640625 C42.80078125 16.91015625 42.80078125 16.91015625 39.37890625 18.7734375 C37.94496851 19.28195431 36.50149948 19.76419864 35.05078125 20.22265625 C34.3340625 20.47337891 33.61734375 20.72410156 32.87890625 20.98242188 C19.02942896 25.73045039 6.9619353 24.17818156 -6.640625 18.9765625 C-19.54908183 14.28461906 -33.64749961 16.24713409 -46.19921875 20.91015625 C-48.17093186 21.51820713 -50.15007225 22.10282857 -52.13671875 22.66015625 C-52.97074219 22.9025 -53.80476562 23.14484375 -54.6640625 23.39453125 C-57.19921875 23.91015625 -57.19921875 23.91015625 -63.19921875 23.91015625 C-63.19921875 17.31015625 -63.19921875 10.71015625 -63.19921875 3.91015625 C-61.11609375 3.49765625 -59.03296875 3.08515625 -56.88671875 2.66015625 C-51.23643167 1.4591843 -45.96491794 -0.09053652 -40.6015625 -2.22265625 C-27.66892741 -6.89102209 -12.59801026 -4.29162987 0 0 Z " fill="#000A3E" transform="translate(236.19921875,265.08984375)"/>
<path d="M0 0 C9.13365767 -0.42209458 16.87149139 -0.23236781 25.60546875 2.84375 C29.6284464 4.21406229 33.68586627 5.24634897 37.8125 6.25 C40.184375 6.8275 42.55625 7.405 45 8 C45 14.6 45 21.2 45 28 C37.67874721 27.0848434 30.96279478 25.79067065 24 23.4375 C16.99698784 21.1000819 10.41183296 20.12422066 3 20 C1.83210938 19.97679687 1.83210938 19.97679687 0.640625 19.953125 C-0.90627941 19.94074976 -2.45346424 19.96403405 -4 20 C-3.34034961 13.13963599 -1.7637236 6.65556077 0 0 Z " fill="#000A3E" transform="translate(364,294)"/>
<path d="M0 0 C0.67250524 2.58193977 1.33817901 5.16532071 2 7.75 C2.19078125 8.47960937 2.3815625 9.20921875 2.578125 9.9609375 C3.46515964 13.44571646 4 16.38123722 4 20 C2.90945312 19.96519531 2.90945312 19.96519531 1.796875 19.9296875 C-9.39202751 19.72886104 -19.02319502 21.51251001 -29.54052734 25.24169922 C-34.76014199 27.0458261 -39.50342305 27.74631183 -45 28 C-45 21.4 -45 14.8 -45 8 C-37.8125 6.25 -37.8125 6.25 -35.41137695 5.66601562 C-31.01344363 4.57138161 -26.7782458 3.25680355 -22.5 1.75 C-15.031651 -0.65490232 -7.74609201 -0.35797088 0 0 Z " fill="#000A3E" transform="translate(218,294)"/>
<path d="M0 0 C3.91485333 0.49053584 7.4655533 1.01844263 11.125 2.5 C17.81048072 4.86297163 24.96111035 5 32 5 C30.36047417 9.6393176 27.93128948 13.63855858 25.375 17.8125 C24.95476562 18.50537109 24.53453125 19.19824219 24.1015625 19.91210938 C23.0710533 21.61010748 22.03598319 23.30533614 21 25 C14.58499079 24.59269783 8.26278302 24.04758839 3 20 C1.47568281 16.65710161 1.20498649 13.38781624 0.9375 9.75 C0.83501953 8.81414062 0.73253906 7.87828125 0.62695312 6.9140625 C0.38013839 4.61045828 0.17278317 2.31013961 0 0 Z " fill="#000A3E" transform="translate(305,296)"/>
<path d="M0 0 C-0.87291809 18.04783231 -0.87291809 18.04783231 -5.66015625 22.44140625 C-8.85058183 23.76580844 -11.57437496 24.56910377 -15 25 C-15.99644531 25.20882813 -16.99289062 25.41765625 -18.01953125 25.6328125 C-21.64359925 24.86335114 -21.97462278 24.12130751 -23.9921875 21.1328125 C-24.97572107 19.47675462 -25.93592146 17.8066651 -26.875 16.125 C-27.37257812 15.28324219 -27.87015625 14.44148438 -28.3828125 13.57421875 C-32 7.36338856 -32 7.36338856 -32 5 C-31.41734375 5.03480469 -30.8346875 5.06960938 -30.234375 5.10546875 C-21.85280337 5.38221876 -14.40032294 3.49296671 -6.5 0.8125 C-4 0 -4 0 0 0 Z " fill="#000A3E" transform="translate(277,296)"/>
</svg>
